<svg version="1.1" id="Layer_1" xmlns="http://www.w3.org/2000/svg" x="0" y="0" viewBox="0 0 56.1 46.8" xml:space="preserve"><style>.st0{fill:#a7a9ac}</style><g id="Layer_2"><g id="Слой_1"><path class="st0" d="M54.6 18.5c.2.1.4.2.6.2.5 0 .9-.4.9-.9V13c0-.3-.1-.5-.3-.7L41 .6c-1-.8-2.5-.8-3.5 0L31.9 5V3.3c0-.5-.4-.9-.9-.9h-3.9c-.5 0-.9.4-.9.9v6.2l-3.5 2.8c-.2.2-.3.4-.4.7v4.8c0 .5.4.9.9.9.2 0 .4-.1.6-.2l.5-.4V27l-8.5-6.7c-1-.8-2.5-.8-3.5 0l-12 9.4c-.2.2-.3.4-.3.7v4.8c0 .5.4.9.9.9.2 0 .4-.1.6-.2l.5-.4V45H1c-.6 0-1 .4-1 .9s.4.9.9.9h54.2c.5 0 .9-.4.9-.9s-.4-.9-.9-.9h-1V18.2l.5.3zM28 4.2h2v2.2L28 8V4.2zm-3.9 9.2L38.5 2c.4-.3.9-.3 1.3 0l14.5 11.4V16L39.8 4.5c-.3-.3-.8-.3-1.1 0L24.1 16v-2.6zM1.8 30.9l11.5-9.1c.4-.3.9-.3 1.3 0l9.6 7.6v2.5l-9.7-7.6c-.3-.3-.8-.3-1.1 0L1.8 33.4v-2.5zm2 3.3L14 26.1l10.2 8.1V45h-4V34.3c0-.5-.4-.9-.9-.9H8.7c-.5 0-.9.4-.9.9V45h-4V34.2zm5.8 4.9h8.8v2.1H9.6v-2.1zm8.8-1.8H9.6v-2.1h8.8v2.1zM9.6 43h8.8v2H9.6v-2zm26.3-4.7c-.6 0-1 .4-1 .9s.4.9.9.9h.1v5h-4V33.3h4v5zM52.3 45H37.7V32.4c0-.5-.4-.9-.9-.9H31c-.5 0-.9.4-.9.9V45H26V16.7L39.2 6.4l13.1 10.4V45z"/><path class="st0" d="M41.6 41h5.8c.5 0 .9-.4.9-.9v-7.7c0-.5-.4-.9-.9-.9h-5.8c-.5 0-.9.4-.9.9v7.8c0 .4.4.8.9.8zm.9-1.8v-3h4v3h-4zm4-6v1.1h-4v-1.1h4zM41.6 27.5h5.8c.5 0 .9-.4.9-.9v-7.8c0-.5-.4-.9-.9-.9h-5.8c-.5 0-.9.4-.9.9v7.8c0 .4.4.8.9.9zm.9-1.9v-3h4v3h-4zm4-5.9v1.1h-4v-1.1h4zM36.8 17.9H31c-.5 0-.9.4-.9.9v7.8c0 .5.4.9.9.9h5.8c.5 0 .9-.4.9-.9v-7.8c0-.5-.4-.9-.9-.9zm-.9 1.8v1.1h-4v-1.1h4zm-4 5.9v-3h4v3h-4z"/></g></g></svg>