<?xml version="1.0" encoding="utf-8"?>
<!-- Generator: Adobe Illustrator 21.1.0, SVG Export Plug-In . SVG Version: 6.00 Build 0)  -->
<svg version="1.1" id="Layer_1" xmlns="http://www.w3.org/2000/svg" xmlns:xlink="http://www.w3.org/1999/xlink" x="0px" y="0px"
	 viewBox="0 0 56.1 46.8" style="enable-background:new 0 0 56.1 46.8;" xml:space="preserve">
<style type="text/css">
	.st0{fill:#A7A9AC;}
</style>
<title>house</title>
<g id="Layer_2">
	<g id="Слой_1">
		<path class="st0" d="M54.6,18.5c0.2,0.1,0.4,0.2,0.6,0.2c0.5,0,0.9-0.4,0.9-0.9V13c0-0.3-0.1-0.5-0.3-0.7L41,0.6
			c-1-0.8-2.5-0.8-3.5,0L31.9,5V3.3c0-0.5-0.4-0.9-0.9-0.9h-3.9c-0.5,0-0.9,0.4-0.9,0.9v6.2l-3.5,2.8c-0.2,0.2-0.3,0.4-0.4,0.7v4.8
			c0,0.5,0.4,0.9,0.9,0.9c0.2,0,0.4-0.1,0.6-0.2l0.5-0.4V27l-8.5-6.7c-1-0.8-2.5-0.8-3.5,0L0.3,29.7C0.1,29.9,0,30.1,0,30.4v4.8
			c0,0.5,0.4,0.9,0.9,0.9c0.2,0,0.4-0.1,0.6-0.2l0.5-0.4V45h-1C0.4,45,0,45.4,0,45.9c0,0.5,0.4,0.9,0.9,0.9h54.2
			c0.5,0,0.9-0.4,0.9-0.9c0-0.5-0.4-0.9-0.9-0.9h-1V18.2L54.6,18.5z M28,4.2h2v2.2L28,8V4.2z M24.1,13.4L38.5,2
			c0.4-0.3,0.9-0.3,1.3,0l14.5,11.4V16L39.8,4.5c-0.3-0.3-0.8-0.3-1.1,0L24.1,16L24.1,13.4z M1.8,30.9l11.5-9.1
			c0.4-0.3,0.9-0.3,1.3,0l9.6,7.6v2.5l-9.7-7.6c-0.3-0.3-0.8-0.3-1.1,0L1.8,33.4V30.9z M3.8,34.2L14,26.1l10.2,8.1V45h-4V34.3
			c0-0.5-0.4-0.9-0.9-0.9H8.7c-0.5,0-0.9,0.4-0.9,0.9V45h-4L3.8,34.2z M9.6,39.1h8.8v2.1H9.6V39.1z M18.4,37.3H9.6v-2.1h8.8V37.3z
			 M9.6,43h8.8v2H9.6V43z M35.9,38.3L35.9,38.3c-0.6,0-1,0.4-1,0.9c0,0.5,0.4,0.9,0.9,0.9h0.1v5h-4V33.3h4V38.3z M52.3,45H37.7V32.4
			c0-0.5-0.4-0.9-0.9-0.9H31c-0.5,0-0.9,0.4-0.9,0.9V45H26V16.7L39.2,6.4l13.1,10.4V45z"/>
		<path class="st0" d="M41.6,41h5.8c0.5,0,0.9-0.4,0.9-0.9v-7.7c0-0.5-0.4-0.9-0.9-0.9h-5.8c-0.5,0-0.9,0.4-0.9,0.9v7.8
			C40.7,40.6,41.1,41,41.6,41L41.6,41z M42.5,39.2v-3h4v3H42.5z M46.5,33.2v1.1h-4v-1.1L46.5,33.2z"/>
		<path class="st0" d="M41.6,27.5h5.8c0.5,0,0.9-0.4,0.9-0.9v-7.8c0-0.5-0.4-0.9-0.9-0.9h-5.8c-0.5,0-0.9,0.4-0.9,0.9v7.8
			C40.7,27,41.1,27.4,41.6,27.5L41.6,27.5z M42.5,25.6v-3h4v3H42.5z M46.5,19.7v1.1h-4v-1.1L46.5,19.7z"/>
		<path class="st0" d="M36.8,17.9H31c-0.5,0-0.9,0.4-0.9,0.9v7.8c0,0.5,0.4,0.9,0.9,0.9h5.8c0.5,0,0.9-0.4,0.9-0.9v-7.8
			C37.7,18.3,37.3,17.9,36.8,17.9L36.8,17.9z M35.9,19.7v1.1h-4v-1.1L35.9,19.7z M31.9,25.6v-3h4v3H31.9z"/>
	</g>
</g>
</svg>
